<svg version="1.1" id="Layer_1" xmlns="http://www.w3.org/2000/svg" xmlns:xlink="http://www.w3.org/1999/xlink" x="0px" y="0px"
	 width="100%" viewBox="0 0 1024 1024" enable-background="new 0 0 1024 1024" xml:space="preserve">
     <rect width="100%" height="100%" fill="#f2f4f6"/>
<path fill="#dfe0e2" opacity="1.000000" stroke="none" 
	d="
M1025.000000,630.532410 
	C1020.166199,632.197937 1017.337219,636.219971 1013.863342,639.205139 
	C981.407959,667.094299 949.076721,695.127930 916.707397,723.117249 
	C911.020813,728.034424 908.869568,727.846375 903.940430,722.146423 
	C881.391052,696.070740 858.828735,670.006226 836.274963,643.934387 
	C835.403442,642.926941 834.529968,641.916809 833.728210,640.854370 
	C830.351807,636.380188 830.573425,633.852295 834.799072,630.164062 
	C848.851196,617.898987 862.902649,605.632874 877.008545,593.429810 
	C898.794617,574.582642 920.641541,555.805786 942.427856,536.959045 
	C949.622131,530.735413 951.305725,530.691101 957.459290,537.789307 
	C977.858765,561.320679 998.180603,584.919312 1018.563232,608.465271 
	C1020.284058,610.453247 1021.680786,612.839417 1024.666504,613.924988 
	C1025.000000,619.354919 1025.000000,624.709900 1025.000000,630.532410 
M957.288818,555.198425 
	C956.288879,554.082092 955.273926,552.978760 954.291443,551.847290 
	C948.716736,545.426453 949.697998,546.309204 943.976990,551.239990 
	C912.580200,578.299927 881.338867,605.540588 849.887207,632.536255 
	C846.442932,635.492554 845.937073,637.286316 849.049683,640.818604 
	C864.459167,658.305908 879.632690,676.001160 894.902893,693.611450 
	C895.507080,694.308350 895.995422,695.422241 897.895264,694.469421 
	C897.895264,691.312683 897.946289,687.862122 897.886353,684.413513 
	C897.640503,670.265320 897.279602,656.118652 897.127136,641.969666 
	C897.048218,634.640137 899.399109,632.672363 906.629028,633.832275 
	C921.575439,636.230469 936.507080,638.721558 951.434692,641.234314 
	C957.516235,642.257996 958.428467,641.677979 958.609009,635.350830 
	C958.860718,626.532410 958.759338,617.707947 959.551636,608.902649 
	C960.094788,602.867249 961.628540,601.208252 967.741821,601.740784 
	C976.191467,602.476807 984.612183,603.541321 993.051270,604.406128 
	C994.756287,604.580872 996.620422,605.520752 998.721130,603.247498 
	C985.072327,587.412659 971.416687,571.569885 957.288818,555.198425 
M909.975098,696.501221 
	C910.258545,701.336060 909.584351,706.272522 911.174438,712.471802 
	C932.607849,693.909424 953.089050,676.171631 973.859558,658.183350 
	C970.565369,655.987549 967.840820,655.862793 965.254517,655.424988 
	C948.518127,652.591736 931.768738,649.835022 915.020203,647.073608 
	C909.344360,646.137817 908.967896,646.375977 909.061768,652.069763 
	C909.300781,666.551147 909.659668,681.030640 909.975098,696.501221 
M1013.361816,624.020935 
	C1015.668945,619.646606 1012.385315,618.598022 1009.424255,618.206421 
	C998.053162,616.702820 986.639893,615.519653 975.246094,614.185120 
	C972.254028,613.834656 970.915344,615.224304 970.802246,618.095337 
	C970.573120,623.910522 970.241272,629.723206 970.115112,635.540466 
	C969.923950,644.356628 970.077698,643.945068 978.629395,645.902100 
	C984.480957,647.241211 988.670532,646.038818 992.950500,641.897583 
	C999.278442,635.774841 1006.207397,630.273376 1013.361816,624.020935 
z"/>
<path fill="#dfe0e2" opacity="1.000000" stroke="none" 
	d="
M1.000000,443.468628 
	C4.405398,442.207489 6.810701,439.800018 9.304724,437.645691 
	C41.678322,409.681213 73.997589,381.653839 106.368515,353.686279 
	C111.961067,348.854462 114.300499,349.188019 119.201096,354.862518 
	C141.942444,381.195160 164.693405,407.519531 187.461212,433.829315 
	C193.268311,440.539795 193.211151,442.405426 186.633026,448.103302 
	C151.274094,478.730835 115.912895,509.355743 80.536156,539.962708 
	C73.191940,546.316711 71.427307,546.123291 65.130646,538.823059 
	C46.209457,516.886108 27.288404,494.948822 8.288937,473.079742 
	C6.359782,470.859192 4.637686,468.267731 1.335324,467.071991 
	C1.000000,459.312408 1.000000,451.624847 1.000000,443.468628 
M103.824638,457.591187 
	C107.594170,458.244507 111.374649,458.841095 115.130226,459.566650 
	C119.092819,460.332123 120.863983,459.211273 120.864014,454.755432 
	C120.864090,445.610168 121.390327,436.464294 121.729912,427.319824 
	C121.962166,421.065826 123.720055,419.329987 130.059402,419.724030 
	C135.028152,420.032867 139.957382,421.032654 144.926041,421.273010 
	C150.205063,421.528381 155.449585,423.739258 161.179260,422.103180 
	C160.624176,421.076080 160.407211,420.425232 159.993027,419.944244 
	C145.111908,402.662720 130.179138,385.425537 115.348259,368.101105 
	C112.894928,365.235291 111.042557,364.925171 108.006615,367.570770 
	C81.656944,390.532715 55.165722,413.332123 28.739748,436.206635 
	C21.859621,442.162109 15.060745,448.211456 7.794772,454.595306 
	C25.304958,474.834137 42.373825,494.562897 59.584911,514.456055 
	C61.049953,512.512573 60.692932,511.134186 60.641277,509.857330 
	C59.954830,492.889343 59.542206,475.916656 59.665695,458.933807 
	C59.709888,452.855560 62.084526,450.715240 68.012833,451.659729 
	C79.674393,453.517517 91.315071,455.506409 103.824638,457.591187 
M78.040535,526.453430 
	C97.467812,509.659943 116.895096,492.866486 137.238678,475.280914 
	C133.956772,474.469086 132.079163,473.865479 130.154312,473.550201 
	C112.255569,470.618256 94.328621,467.851746 76.459076,464.753357 
	C72.282082,464.029114 71.123436,465.198730 71.228355,469.231934 
	C71.696045,487.209991 71.952347,505.193451 72.362076,523.173218 
	C72.409050,525.234558 72.208061,527.525085 74.391212,529.271545 
	C75.455490,528.470703 76.491058,527.691528 78.040535,526.453430 
M135.670197,462.868561 
	C139.106628,463.447388 142.545670,464.011200 145.978516,464.610565 
	C148.087677,464.978851 149.827011,464.430145 151.466690,462.994751 
	C158.963333,456.432190 166.550537,449.972961 174.037048,443.399017 
	C175.199387,442.378387 177.033569,441.350922 176.183350,439.341888 
	C175.444489,437.596039 173.978394,436.397491 172.004059,436.168793 
	C160.296509,434.812927 148.586655,433.476471 136.872803,432.176361 
	C134.746170,431.940308 133.308823,432.760590 133.219177,435.149658 
	C132.920349,443.113068 132.606689,451.075867 132.315720,459.039551 
	C132.248749,460.872589 132.798904,462.328186 135.670197,462.868561 
z"/>
<path fill="#dfe0e2" opacity="1.000000" stroke="none" 
	d="
M924.466125,1025.000000 
	C914.422974,1011.123840 902.495422,999.209717 891.671631,986.376465 
	C879.335144,971.749695 866.676941,957.394653 854.193359,942.891479 
	C850.509277,938.611328 850.794067,935.571960 855.118652,931.824219 
	C891.457703,900.333252 927.798767,868.844666 964.154968,837.373535 
	C969.388245,832.843445 972.458557,833.258179 977.151184,838.736938 
	C991.978088,856.047546 1006.839417,873.328735 1021.716553,890.596191 
	C1022.455627,891.454102 1023.469116,892.075562 1024.677490,892.903564 
	C1025.000000,901.687561 1025.000000,910.375183 1024.632812,919.389343 
	C1013.563293,917.542969 1002.704285,916.836487 991.715820,915.664551 
	C990.009888,923.544312 990.412476,930.999023 990.261230,938.411133 
	C990.103394,946.142395 990.198486,945.832825 997.830872,947.521423 
	C1003.967896,948.879150 1008.905273,948.322876 1013.494141,943.405762 
	C1016.832275,939.828857 1020.582458,936.419617 1025.000000,934.000000 
	C1025.000000,939.022095 1025.000000,944.044189 1024.675537,949.645874 
	C1022.585266,951.454590 1020.694885,952.539246 1019.072205,953.934998 
	C997.504700,972.486145 975.843628,990.932678 954.526306,1009.767944 
	C949.122131,1014.542847 942.529297,1018.261963 939.000000,1025.000000 
	C934.310730,1025.000000 929.621521,1025.000000 924.466125,1025.000000 
M917.663452,953.565186 
	C917.595398,950.569763 917.647888,947.565857 917.435852,944.580627 
	C916.887390,936.858948 919.223022,934.547241 927.011353,935.763184 
	C942.297974,938.149841 957.588684,940.535339 972.815063,943.269897 
	C977.606873,944.130554 978.690735,942.301514 978.726807,938.106323 
	C978.806824,928.789001 978.687378,919.464233 979.625793,910.165222 
	C980.176453,904.708496 982.263489,902.766907 987.706360,903.395630 
	C996.459351,904.406738 1005.199280,905.533875 1013.957458,906.495483 
	C1015.632690,906.679443 1017.545471,907.402222 1019.402527,905.418335 
	C1002.943909,886.443909 986.522583,867.512573 969.726990,848.149719 
	C962.834167,854.152954 956.479370,859.717773 950.092102,865.245178 
	C923.028198,888.666016 895.976929,912.101624 868.845947,935.444641 
	C866.440369,937.514343 865.982178,938.993347 868.194885,941.525452 
	C883.971069,959.578552 899.643555,977.722290 915.352234,995.834473 
	C915.890503,996.455139 916.417358,997.145081 917.663086,996.704956 
	C917.663086,982.711670 917.663086,968.629395 917.663452,953.565186 
M958.885986,952.730408 
	C951.024536,951.370117 943.161499,950.018738 935.302124,948.646667 
	C929.840637,947.693115 929.154907,948.168945 929.239441,953.724304 
	C929.520325,972.184204 929.871887,990.643005 930.236694,1009.101440 
	C930.264343,1010.498474 929.822937,1012.185669 932.445862,1013.326538 
	C952.642212,995.817505 973.096680,978.084656 993.551086,960.351868 
	C993.343872,959.757080 993.136658,959.162354 992.929443,958.567566 
	C981.862732,956.683655 970.796021,954.799805 958.885986,952.730408 
z"/>
<path fill="#dfe0e2" opacity="1.000000" stroke="none" 
	d="
M943.533142,1.000000 
	C948.612915,9.202907 955.528137,15.563009 961.485229,22.678539 
	C970.138000,33.013882 979.168335,43.032303 987.878296,53.320866 
	C991.681824,57.813816 991.351807,60.641861 986.974792,64.433952 
	C950.751892,95.815857 914.514343,127.180908 878.249390,158.514267 
	C872.362549,163.600540 870.118347,163.378769 865.028320,157.491135 
	C842.060486,130.923889 819.106384,104.344658 796.163513,77.755814 
	C791.226196,72.033829 791.407654,69.685600 796.949707,64.890678 
	C819.729980,45.181309 842.507080,25.468197 865.279175,5.749347 
	C866.655457,4.557584 868.167297,3.468701 868.923340,1.330950 
	C875.021179,1.000000 881.042297,1.000000 887.381470,1.301714 
	C887.136536,2.211394 886.625488,2.879250 886.003113,3.418752 
	C861.207458,24.913595 836.500244,46.512825 811.501343,67.768875 
	C807.270813,71.365990 807.737610,73.511124 810.970337,77.197357 
	C825.910950,94.233658 840.629211,111.464943 855.463806,128.594543 
	C856.250549,129.503036 856.878052,130.980789 858.641846,130.457932 
	C859.469177,128.349350 859.085938,126.161179 859.069458,124.025894 
	C858.948792,108.360329 858.723938,92.695480 858.632019,77.029808 
	C858.591980,70.205772 861.234131,68.179237 868.040955,69.331810 
	C883.632019,71.971786 899.247986,74.469193 914.815918,77.237755 
	C918.401184,77.875359 919.661682,76.944962 919.731323,73.328552 
	C919.910767,64.006470 920.386597,54.690536 920.651062,45.369507 
	C920.849670,38.370903 923.017029,36.554909 929.896973,37.340134 
	C939.888428,38.480488 949.904541,39.405251 961.356140,40.568901 
	C956.095886,34.362370 951.770691,29.372717 947.572021,24.278799 
	C941.123352,16.455212 933.612366,9.525147 928.000000,1.000000 
	C933.022095,1.000000 938.044189,1.000000 943.533142,1.000000 
M871.178162,133.415955 
	C871.475647,137.778320 870.609253,142.285583 872.947510,147.560730 
	C893.841980,129.434006 914.251770,111.727745 934.603088,94.072189 
	C933.015137,91.998131 931.770813,91.922066 930.668701,91.734657 
	C912.132324,88.582344 893.584839,85.494766 875.047974,82.345024 
	C871.204041,81.691864 870.029358,83.353386 870.132812,87.011650 
	C870.561096,102.151825 870.833740,117.296402 871.178162,133.415955 
M952.921326,78.419540 
	C959.342468,72.897957 965.806396,67.424805 972.153198,61.819000 
	C973.647217,60.499310 976.350037,59.513321 975.307251,56.787327 
	C974.384338,54.374836 972.039612,53.681458 969.608704,53.419014 
	C958.385071,52.207264 947.156067,51.038506 935.946594,49.706352 
	C933.414734,49.405453 932.153198,49.991165 932.064514,52.675224 
	C931.806885,60.473354 931.459778,68.268509 931.190979,76.066315 
	C931.145630,77.382118 931.217590,78.672272 932.495728,79.618942 
	C936.580933,82.644783 948.630188,82.255432 952.921326,78.419540 
z"/>
<path fill="#dfe0e2" opacity="1.000000" stroke="none" 
	d="
M1.000000,137.467941 
	C3.385570,136.963455 4.939221,135.378128 6.571727,133.971298 
	C29.519304,114.196007 52.453182,94.404816 75.407799,74.637703 
	C81.155418,69.688202 83.264214,69.793892 88.237167,75.531586 
	C111.459724,102.325287 134.650757,129.146347 157.818222,155.987701 
	C162.376801,161.269196 162.120682,163.692581 157.027878,168.088058 
	C121.744087,198.540695 86.472275,229.007202 51.194176,259.466431 
	C50.186581,260.336365 49.166294,261.192871 48.127342,262.024963 
	C42.455517,266.567505 40.116402,266.212616 35.280376,260.561768 
	C25.648483,249.306931 15.927299,238.128357 6.206575,226.949951 
	C4.910492,225.459534 3.683697,223.814285 1.332619,223.078247 
	C1.000000,216.978851 1.000000,210.957703 1.306894,204.603958 
	C11.200267,214.001083 19.138809,225.254822 29.538063,235.225693 
	C29.652514,233.538010 29.768524,232.722458 29.754034,231.909210 
	C29.445480,214.593765 29.069250,197.279312 28.829996,179.962952 
	C28.743460,173.699722 31.425528,171.491455 37.516960,172.495544 
	C53.112347,175.066223 68.722313,177.558212 84.280167,180.340454 
	C88.554115,181.104782 89.968910,179.884232 90.005753,175.627060 
	C90.079224,167.138245 90.559280,158.653442 90.834335,150.165771 
	C91.125961,141.166672 92.924416,139.553650 101.658722,140.599991 
	C103.311562,140.797989 104.950378,141.132736 106.606743,141.278290 
	C114.429733,141.965790 122.212723,143.303421 130.668564,143.248703 
	C129.955490,141.957336 129.680344,141.168777 129.172470,140.581451 
	C113.924240,122.947914 98.628067,105.355721 83.412827,87.693817 
	C81.183083,85.105515 79.713936,86.193474 77.691185,87.967484 
	C65.800949,98.395523 53.730801,108.618958 41.871899,119.082054 
	C28.271454,131.081696 14.089055,142.419388 1.000000,155.000000 
	C1.000000,149.311966 1.000000,143.623917 1.000000,137.467941 
M41.078896,211.553070 
	C41.733879,224.384827 40.472095,237.313400 42.335247,251.720764 
	C64.174652,232.765030 84.794342,214.867966 105.625420,196.787415 
	C104.580132,196.008377 104.230713,195.538589 103.812714,195.466492 
	C84.135345,192.072418 64.453590,188.703674 44.767857,185.358398 
	C41.445480,184.793808 40.262440,186.424240 40.396019,189.612885 
	C40.688580,196.596619 40.847950,203.585907 41.078896,211.553070 
M101.991341,172.050659 
	C101.243423,183.187668 101.243416,183.187744 112.449135,184.805450 
	C112.613976,184.829239 112.793922,184.806839 112.944160,184.864761 
	C116.907455,186.393082 119.822472,184.792130 122.770592,182.125809 
	C129.317368,176.204834 136.118469,170.565521 142.794174,164.786301 
	C144.138260,163.622711 146.119003,162.675156 145.602783,160.460770 
	C145.034134,158.021545 142.937012,157.051712 140.719467,156.793228 
	C129.473221,155.482315 118.212807,154.293381 106.958763,153.048920 
	C103.499115,152.666367 102.127548,154.228928 102.187340,157.647903 
	C102.265976,162.143967 102.073112,166.644806 101.991341,172.050659 
z"/>
<path fill="#dfe0e2" opacity="1.000000" stroke="none" 
	d="
M701.532043,1.000000 
	C696.469482,8.453550 688.679871,13.497495 681.836975,19.499607 
	C653.920410,43.986088 625.690186,68.115273 597.550049,92.346451 
	C591.865845,97.241096 589.802246,97.053619 584.750977,91.237701 
	C561.817505,64.832596 538.949097,38.370831 515.952209,12.021080 
	C513.244507,8.918591 511.860596,5.652674 512.084900,1.305297 
	C517.688049,1.000000 523.376038,1.000000 529.464722,1.332028 
	C526.506592,5.091937 527.882324,7.856511 530.648987,11.013142 
	C542.939392,25.036087 554.977234,39.280319 567.253052,53.316242 
	C570.693542,57.250065 573.754822,61.598652 578.040833,64.993759 
	C579.477661,62.884705 578.929321,60.837502 578.899170,58.937454 
	C578.653198,43.457333 578.229248,27.979725 578.038879,12.499146 
	C577.926453,3.353026 580.334717,1.456349 589.162292,3.043639 
	C603.074097,5.545135 616.955078,8.254187 630.922180,10.399690 
	C639.697693,11.747713 639.724426,13.029160 639.652527,3.463952 
	C639.646362,2.643552 639.878540,1.821360 640.000000,1.000000 
	C643.361267,1.000000 646.722595,1.000000 650.579590,1.461419 
	C651.062683,4.081829 650.980347,6.243376 651.059387,8.399011 
	C651.123962,10.161484 650.408875,12.669758 652.387573,13.361773 
	C657.537842,15.163043 663.559204,17.600887 668.270325,15.094824 
	C674.384949,11.842133 679.917419,6.996409 684.000000,1.000000 
	C689.688049,1.000000 695.376038,1.000000 701.532043,1.000000 
M589.956482,22.741558 
	C590.635864,41.934231 589.606873,61.195732 591.743591,82.086357 
	C613.406311,63.295994 633.885132,45.532513 654.466553,27.680044 
	C652.399658,25.514286 650.510132,25.456963 648.765015,25.161325 
	C631.205200,22.186563 613.644714,19.214449 596.069702,16.331532 
	C590.182800,15.365878 590.163452,15.483703 589.956482,22.741558 
z"/>
<path fill="#dfe0e2" opacity="1.000000" stroke="none" 
	d="
M164.460632,1025.000000 
	C165.181580,1017.884399 164.578873,1010.701843 164.784927,1003.550476 
	C165.039505,994.715820 167.393875,992.761902 176.241196,993.913086 
	C184.155807,994.943054 192.091614,995.815369 200.026764,996.677063 
	C201.284637,996.813721 202.680618,997.137512 204.441833,995.641113 
	C201.308365,991.911316 198.211456,988.133423 195.017426,984.439453 
	C183.034241,970.580688 170.895142,956.853821 159.101273,942.836243 
	C156.049438,939.209045 154.026871,939.404480 150.713501,942.295837 
	C127.372200,962.664062 103.907219,982.890503 80.478386,1003.158386 
	C74.809830,1008.062256 69.105553,1012.925171 63.465359,1017.861328 
	C61.350670,1019.712036 59.046333,1021.449646 58.063751,1024.654785 
	C51.312355,1025.000000 44.624710,1025.000000 37.468529,1025.000000 
	C63.318970,1002.289246 89.643097,979.584473 115.954590,956.864990 
	C127.161697,947.187988 138.354446,937.494141 149.529831,927.780457 
	C154.950043,923.069153 157.407791,923.104248 162.020111,928.422546 
	C184.908813,954.814514 207.787460,981.215332 230.605316,1007.668640 
	C236.653885,1014.680969 236.535065,1015.296753 230.470505,1022.232422 
	C229.935104,1022.844727 229.595581,1023.628296 229.082550,1024.666138 
	C222.978851,1025.000000 216.957703,1025.000000 210.600540,1024.689819 
	C212.084412,1021.733887 214.881897,1020.135376 217.133301,1017.953857 
	C218.390610,1016.735596 220.326965,1015.711731 219.391769,1013.475830 
	C218.653961,1011.711975 217.258057,1010.514893 215.268066,1010.283081 
	C203.763351,1008.943115 192.253983,1007.642761 180.751099,1006.287292 
	C177.428955,1005.895874 176.282684,1007.555298 176.258453,1010.594849 
	C176.220169,1015.396973 176.090820,1020.198303 176.000000,1025.000000 
	C172.307098,1025.000000 168.614182,1025.000000 164.460632,1025.000000 
z"/>
<path fill="#dfe0e2" opacity="1.000000" stroke="none" 
	d="
M347.532410,1.000000 
	C347.998291,2.499305 347.019379,3.413441 346.003723,4.290966 
	C333.034851,15.496360 320.107971,26.750999 307.066559,37.871353 
	C302.331635,41.908802 299.761322,41.837486 295.968903,37.582565 
	C285.894745,26.279779 275.960114,14.852520 265.994141,3.453671 
	C265.572906,2.971879 265.393372,2.278724 265.050629,1.342018 
	C270.022095,1.000000 275.044189,1.000000 280.583710,1.347588 
	C282.523163,5.223802 285.038208,7.751346 289.000000,10.511586 
	C289.000000,6.734220 289.000000,3.867110 289.000000,1.000000 
	C292.692902,1.000000 296.385834,1.000000 300.412445,1.363394 
	C300.746155,9.739114 300.746155,17.751440 300.746155,25.763767 
	C301.424591,25.965361 302.103027,26.166954 302.781464,26.368547 
	C312.179718,17.903141 322.482147,10.489776 331.000000,1.000000 
	C336.354919,1.000000 341.709869,1.000000 347.532410,1.000000 
z"/>
<path fill="#dfe0e2" opacity="1.000000" stroke="none" 
	d="
M379.468262,1025.000000 
	C389.477966,1015.775513 399.935699,1006.527954 410.442322,997.336243 
	C415.951843,992.516174 421.533875,987.778564 427.109009,983.034058 
	C430.135651,980.458374 433.414978,980.375305 435.995422,983.330139 
	C447.802307,996.849609 459.992065,1010.047363 470.963745,1024.655273 
	C466.310760,1025.000000 461.621490,1025.000000 456.288757,1024.714233 
	C450.635620,1016.908752 444.143768,1010.608154 438.506165,1003.603210 
	C431.479370,994.871948 431.231598,994.684998 422.929230,1002.050659 
	C414.484100,1009.543274 405.017487,1015.952576 398.000000,1025.000000 
	C391.978851,1025.000000 385.957703,1025.000000 379.468262,1025.000000 
z"/>
<path fill="#dfe0e2" opacity="1.000000" stroke="none" 
	d="
M89.205818,674.191162 
	C101.933609,663.168152 114.390274,652.375305 126.863655,641.601807 
	C133.440567,635.921204 135.593948,635.984558 141.253769,642.499512 
	C163.964325,668.641235 186.639893,694.813477 209.268631,721.026062 
	C214.961884,727.620972 214.786407,729.606812 208.100189,735.396606 
	C179.910416,759.806824 151.667938,784.156128 123.455345,808.539978 
	C115.772522,815.180176 108.196075,821.945374 100.439217,828.497375 
	C95.379417,832.771179 92.467003,832.507263 88.154350,827.531006 
	C64.820343,800.606323 41.513546,773.657837 18.251955,746.670593 
	C13.906204,741.628784 14.296341,738.951843 19.417210,734.528320 
	C42.599094,714.503540 65.768028,694.463684 89.205818,674.191162 
M49.570969,724.084045 
	C44.299976,728.674805 39.128414,733.387207 33.720585,737.810669 
	C30.495382,740.448730 30.060158,742.445923 33.059811,745.847961 
	C47.810772,762.577759 62.271896,779.562866 76.932137,796.373474 
	C78.221336,797.851868 79.034676,800.095032 81.863235,800.776611 
	C81.863235,798.200012 81.899139,796.055420 81.857475,793.912231 
	C81.566338,778.936768 81.233505,763.962097 80.966377,748.986267 
	C80.796738,739.475220 83.262505,737.443115 92.608589,739.031128 
	C107.203362,741.511047 121.824570,743.838928 136.401398,746.418701 
	C140.169785,747.085632 141.754913,746.376770 142.142212,742.170044 
	C142.953583,733.356934 142.710800,724.537170 143.059189,715.726318 
	C143.362167,708.064392 145.340027,706.238220 152.837585,706.848389 
	C157.975037,707.266541 163.079086,708.193848 168.219894,708.443237 
	C173.016846,708.675903 177.794632,710.513672 182.981277,709.335266 
	C182.474609,708.362793 182.322647,707.862610 182.010086,707.501282 
	C166.656647,689.752869 151.254852,672.046082 135.958374,654.248840 
	C133.441910,651.320923 131.740860,652.987976 129.772461,654.690613 
	C103.212318,677.665283 76.645103,700.631775 49.570969,724.084045 
M147.469955,760.156372 
	C130.912231,757.382446 114.336624,754.708801 97.810455,751.758118 
	C94.080528,751.092163 93.019157,752.212646 93.098862,755.739502 
	C93.527115,774.688965 93.844254,793.640869 94.231934,812.591309 
	C94.257668,813.849304 93.958961,815.333130 96.438744,816.430969 
	C116.586197,798.950012 137.034622,781.207825 157.953522,763.057495 
	C154.190918,761.006104 151.214920,760.747009 147.469955,760.156372 
M194.672150,723.384277 
	C183.451645,722.026917 172.219421,720.757629 161.016724,719.266418 
	C156.879868,718.715759 154.703094,719.742554 154.734024,724.334412 
	C154.766495,729.152283 154.262848,733.971313 154.190048,738.792786 
	C154.000793,751.329346 152.728836,748.894226 164.258392,750.983215 
	C167.546707,751.578979 170.596680,752.485352 173.615540,749.766235 
	C180.785339,743.308044 188.123352,737.031860 195.515839,730.828003 
	C198.656204,728.192627 199.433792,725.959961 194.672150,723.384277 
z"/>
<path fill="#dfe0e2" opacity="1.000000" stroke="none" 
	d="
M993.988953,318.022278 
	C999.453552,324.331116 1004.699707,330.359985 1009.936157,336.397339 
	C1013.945129,341.019409 1013.852844,343.956055 1009.350342,347.851349 
	C973.346497,379.000031 937.334656,410.139496 901.285278,441.235565 
	C894.437317,447.142609 892.481750,446.901062 886.552307,440.046783 
	C863.679993,413.606903 840.816284,387.159607 817.938965,360.724091 
	C813.414673,355.496094 813.528748,353.222992 819.225037,348.284851 
	C842.245300,328.328217 865.326172,308.441376 888.380981,288.524567 
	C901.610046,277.096039 914.818665,265.643768 928.064697,254.235046 
	C932.605103,250.324356 935.585999,250.465424 939.546692,255.030121 
	C957.657532,275.902771 975.699646,296.835052 993.988953,318.022278 
M855.713257,332.216034 
	C848.429321,338.561981 841.152222,344.915680 833.859070,351.251038 
	C829.245483,355.258636 829.199341,355.787720 833.205383,360.438293 
	C847.444336,376.968170 861.656799,393.520935 875.953308,410.000824 
	C877.456665,411.733765 878.709106,413.988861 881.675354,414.822235 
	C881.675354,411.165558 881.729431,408.011871 881.666138,404.860565 
	C881.368591,390.043121 880.969421,375.227356 880.751831,360.408875 
	C880.653625,353.719482 882.999329,351.655457 889.652283,352.711151 
	C904.937561,355.136658 920.192261,357.756317 935.455750,360.318268 
	C941.258667,361.292267 941.619812,360.987671 941.822449,354.958466 
	C942.118774,346.138580 942.449829,337.319855 942.780457,328.501160 
	C943.022461,322.046631 945.145935,320.073517 951.432312,320.679840 
	C956.237976,321.143341 961.018494,321.865601 965.822632,322.348267 
	C971.185974,322.887177 976.563477,323.285400 982.041382,323.753967 
	C982.204834,321.722961 981.254639,320.940063 980.525024,320.096039 
	C965.819275,303.084686 951.044861,286.132233 936.431274,269.042206 
	C933.614990,265.748718 931.704346,266.313141 928.729370,268.912689 
	C904.650269,289.952484 880.432129,310.833069 855.713257,332.216034 
M905.038757,422.519318 
	C922.504028,407.400787 939.969360,392.282257 957.616455,377.006378 
	C956.386597,376.072418 956.148254,375.743652 955.862488,375.695465 
	C935.867981,372.325562 915.869080,368.981476 895.872375,365.624725 
	C893.034363,365.148346 892.531799,366.564606 892.587585,369.070282 
	C892.968506,386.195831 893.193665,403.324829 893.570068,420.450500 
	C893.641052,423.679047 893.598938,426.989532 894.864197,430.429901 
	C898.829468,428.483795 901.523865,425.544220 905.038757,422.519318 
M996.690552,343.207825 
	C999.058411,338.468872 995.347778,337.552399 992.340820,337.142212 
	C981.170715,335.618622 969.950134,334.466583 958.750244,333.159760 
	C955.582642,332.790161 954.245483,334.084137 954.192078,337.344574 
	C954.091736,343.478638 953.729065,349.609955 953.401917,355.738464 
	C953.004639,363.182922 953.064331,362.825745 960.485535,364.645752 
	C967.432617,366.349548 972.739380,365.108429 977.852966,359.764618 
	C983.450562,353.915070 990.024780,349.000122 996.690552,343.207825 
z"/>
<path fill="#dfe0e2" opacity="1.000000" stroke="none" 
	d="
M370.073181,737.066650 
	C383.561310,725.382446 396.746063,713.890259 410.012665,702.493286 
	C414.188965,698.905457 417.061188,699.110413 420.744141,703.359436 
	C444.312775,730.550903 467.841736,757.776794 491.310608,785.054382 
	C495.497009,789.920166 495.209656,792.796143 490.405334,796.948059 
	C457.635284,825.267822 424.829407,853.546082 392.040985,881.844543 
	C388.509888,884.892212 385.036621,888.007019 381.501862,891.050476 
	C376.580994,895.287231 373.909088,895.311707 369.663971,890.450623 
	C353.335754,871.752808 337.132690,852.945679 320.889618,834.173584 
	C313.695038,825.858887 306.473328,817.567017 299.346771,809.194336 
	C295.090942,804.194458 295.269073,801.694275 300.213928,797.412720 
	C323.387482,777.347900 346.601715,757.330078 370.073181,737.066650 
M333.970490,831.547119 
	C343.307526,842.240540 352.169983,853.362976 362.667999,864.239990 
	C362.779541,862.174744 362.893616,861.195251 362.876160,860.218140 
	C362.572510,843.241333 362.185211,826.265625 361.970093,809.287781 
	C361.885559,802.614563 364.807098,800.394287 371.389130,801.479187 
	C386.980347,804.049072 402.609741,806.401611 418.159912,809.196655 
	C422.245056,809.930908 423.271759,808.357666 423.384430,804.967529 
	C423.622223,797.813782 423.755157,790.655762 424.067993,783.505493 
	C424.723419,768.526306 425.306305,768.198792 440.302032,770.237854 
	C448.074951,771.294678 455.923248,771.797180 464.693085,772.642273 
	C463.300354,770.678223 462.639984,769.558350 461.801727,768.592896 
	C447.285431,751.873779 432.653198,735.253784 418.292511,718.402344 
	C415.381348,714.986267 413.310089,714.960999 410.172394,717.773132 
	C402.860260,724.326599 395.376495,730.688660 387.952911,737.117554 
	C363.163879,758.585144 338.397675,780.079346 313.539032,801.466125 
	C310.952087,803.691711 311.161224,805.278259 313.226990,807.614563 
	C320.063538,815.346130 326.759674,823.201904 333.970490,831.547119 
M417.205475,844.694214 
	C424.161469,838.262695 432.051971,832.814575 438.818237,825.170166 
	C436.968536,824.581787 436.071808,824.175781 435.133148,824.015808 
	C416.297668,820.806396 397.454681,817.641174 378.620148,814.426392 
	C374.421448,813.709717 373.922607,816.155640 373.996094,819.407471 
	C374.413116,837.856750 374.767609,856.307373 375.193817,874.756470 
	C375.226471,876.170105 374.806732,877.801636 377.003784,879.472534 
	C390.131592,868.101318 403.390442,856.616577 417.205475,844.694214 
M462.768890,805.265991 
	C467.054840,801.594910 471.412994,798.003235 475.587738,794.209778 
	C477.062073,792.870117 479.865204,791.975891 479.063324,789.339478 
	C478.257874,786.691101 475.696655,785.793091 473.121368,785.505493 
	C462.245361,784.291077 451.352478,783.221802 440.487579,781.917786 
	C437.248779,781.529053 435.815338,782.629272 435.724640,785.819519 
	C435.512421,793.282776 435.250824,800.744690 435.009369,808.207153 
	C434.926880,810.756836 436.124298,812.014709 438.650543,812.686401 
	C446.916077,814.883789 454.624329,815.352905 460.328430,807.325073 
	C460.793701,806.670288 461.576996,806.241455 462.768890,805.265991 
z"/>
<path fill="#dfe0e2" opacity="1.000000" stroke="none" 
	d="
M572.645447,857.877075 
	C582.489563,847.664368 593.382019,839.133240 603.785217,830.060120 
	C629.395813,807.723877 655.188721,785.596619 680.906616,763.383423 
	C681.914917,762.512573 682.882141,761.592773 683.909973,760.746033 
	C690.710876,755.143860 692.487854,755.431946 698.191589,762.057556 
	C720.362061,787.811096 742.617737,813.491211 764.841553,839.198792 
	C765.603638,840.080322 766.397644,840.936707 767.120789,841.849243 
	C771.037537,846.791809 771.053040,849.124573 766.303711,853.323792 
	C755.447571,862.922424 744.411499,872.317627 733.446838,881.793579 
	C708.116577,903.684570 682.774780,925.562256 657.462585,947.474182 
	C652.130859,952.089783 649.638611,952.059692 644.964294,946.667175 
	C621.503357,919.601807 598.087219,892.497620 574.653748,865.408447 
	C572.856995,863.331543 571.308411,861.187195 572.645447,857.877075 
M670.432373,861.962952 
	C679.580322,863.483398 688.728271,865.003784 697.740479,866.501648 
	C699.267578,864.495728 698.839600,862.593445 698.909851,860.820312 
	C699.266113,851.835388 699.494263,842.845032 699.897278,833.862427 
	C700.187500,827.394470 702.819702,825.197632 709.202087,825.944153 
	C716.142090,826.755737 723.061157,827.755432 730.009216,828.483765 
	C732.886414,828.785400 735.844482,829.362732 739.058533,828.417786 
	C738.720764,827.522827 738.642212,826.819031 738.260925,826.375916 
	C723.049438,808.697815 707.788208,791.062561 692.602051,773.362854 
	C690.600037,771.029480 689.073547,771.761230 687.191895,773.403687 
	C680.917725,778.880127 674.556091,784.256226 668.260864,789.708679 
	C642.324036,812.173523 616.423828,834.680725 590.437805,857.088440 
	C587.328552,859.769531 586.666260,861.735596 589.716614,865.202759 
	C603.911133,881.337158 617.818359,897.724304 631.855408,913.997620 
	C633.719666,916.158875 635.737854,918.187195 638.442505,921.090515 
	C638.624817,918.366516 638.807861,917.071594 638.783203,915.780640 
	C638.465393,899.126892 638.063110,882.474548 637.805603,865.819946 
	C637.705261,859.326355 640.466492,857.133423 646.887146,858.179688 
	C654.446106,859.411560 662.007507,860.628235 670.432373,861.962952 
M650.055908,873.363281 
	C650.190491,894.220154 649.732605,915.095886 651.223450,937.492615 
	C673.183777,918.479248 693.871521,900.567627 714.559265,882.656067 
	C714.325623,882.152344 714.091980,881.648682 713.858337,881.144958 
	C693.700134,877.746765 673.542480,874.345459 653.382568,870.957214 
	C651.959229,870.718018 650.701172,870.932678 650.055908,873.363281 
M754.813477,845.906616 
	C753.513672,843.492371 751.496521,842.497009 748.756042,842.210449 
	C738.001465,841.086182 727.258484,839.839050 716.529114,838.493652 
	C713.004028,838.051514 711.219360,838.893982 711.223022,842.854248 
	C711.230042,850.343872 710.910278,857.834229 710.690979,865.323181 
	C710.655518,866.533569 710.695618,867.606201 711.799194,868.420166 
	C716.136230,871.619141 727.744507,871.150818 731.916321,867.588989 
	C735.334961,864.670349 738.979431,861.979736 742.143616,858.808716 
	C746.334595,854.608459 751.793152,851.734985 754.813477,845.906616 
z"/>
<path fill="#dfe0e2" opacity="1.000000" stroke="none" 
	d="
M386.251526,581.268494 
	C377.266327,588.991089 368.537994,596.469177 359.829712,603.970581 
	C354.866882,608.245605 352.120514,608.329712 347.964874,603.545959 
	C324.257935,576.255737 300.619812,548.905457 277.018677,521.523560 
	C273.523712,517.468750 273.886719,514.637878 278.240051,510.851318 
	C302.246429,489.970612 326.296570,469.140259 350.333893,448.295166 
	C362.288055,437.928497 374.259644,427.581940 386.198334,417.197510 
	C392.753326,411.495880 394.891632,411.510468 400.591187,418.090057 
	C423.712982,444.782104 446.781647,471.520172 469.840790,498.266357 
	C473.862213,502.930786 473.433319,505.752899 468.478363,510.040924 
	C441.147522,533.693298 413.835388,557.367249 386.251526,581.268494 
M361.088959,454.598907 
	C338.262909,474.300720 315.485413,494.059387 292.553711,513.637451 
	C289.442627,516.293518 288.968414,517.904114 291.881195,521.159485 
	C301.989044,532.456055 311.735229,544.075562 321.663666,555.533447 
	C327.915619,562.748474 334.247284,569.894409 340.771393,577.331482 
	C342.116394,574.760254 341.697906,572.725891 341.579193,570.809814 
	C340.558197,554.330688 340.789062,537.831360 340.700317,521.338379 
	C340.668976,515.520020 343.100372,513.505676 348.844513,514.431641 
	C364.622742,516.975220 380.419189,519.424377 396.145599,522.259338 
	C400.618469,523.065613 401.752930,521.641296 401.817200,517.515869 
	C401.964966,508.027161 402.361389,498.540802 402.769287,489.058319 
	C402.999115,483.715790 405.644135,481.581848 410.876556,482.219147 
	C414.676056,482.681885 418.471649,483.182922 422.277435,483.587128 
	C428.801971,484.280121 435.333099,484.910767 441.861481,485.567596 
	C442.083618,485.174683 442.305786,484.781799 442.527924,484.388885 
	C426.065308,465.376862 409.602661,446.364807 392.830811,426.995636 
	C381.954315,436.454315 371.790039,445.293610 361.088959,454.598907 
M416.051910,539.679382 
	C416.502228,535.605713 412.918457,536.890015 411.279877,536.590637 
	C396.896423,533.963318 382.464600,531.594116 368.026794,529.274841 
	C363.019989,528.470520 358.088806,526.861877 352.975494,527.203247 
	C351.382202,534.388672 353.185303,589.161804 355.345001,592.400391 
	C375.473236,574.970886 395.550140,557.585754 416.051910,539.679382 
M422.713776,526.693298 
	C425.736603,526.587158 428.821899,528.940369 431.787415,526.360840 
	C439.808472,519.383728 447.861542,512.443420 455.895111,505.480591 
	C458.689972,503.058197 457.451782,501.038025 455.008087,499.543762 
	C453.796844,498.803101 452.181580,498.585175 450.716492,498.419647 
	C439.991180,497.207886 429.245850,496.164429 418.533997,494.847229 
	C415.499054,494.474030 414.198761,495.282745 414.112366,498.377808 
	C413.950256,504.185242 413.495209,509.985535 413.383789,515.793091 
	C413.212433,524.725220 413.291809,524.726746 422.713776,526.693298 
z"/>
<path fill="#dfe0e2" opacity="1.000000" stroke="none" 
	d="
M603.798035,637.183838 
	C589.068604,620.162231 574.570007,603.408325 560.043091,586.679260 
	C553.968811,579.684143 554.187378,577.717468 561.246826,571.619263 
	C596.664368,541.024536 632.023132,510.361633 667.439026,479.764923 
	C673.920044,474.165802 675.707764,474.210358 681.393860,480.752075 
	C704.666626,507.526550 727.844910,534.383301 751.000061,561.259644 
	C754.831726,565.707031 754.542908,568.167480 749.852966,572.239624 
	C725.327820,593.534119 700.758911,614.778198 676.203491,636.037842 
	C664.367249,646.285400 652.517578,656.517517 640.693359,666.778992 
	C635.845642,670.986023 632.988831,670.852051 628.904602,666.141357 
	C620.613037,656.577820 612.313660,647.021118 603.798035,637.183838 
M603.854065,619.657776 
	C609.632690,626.246155 615.411377,632.834595 621.559814,639.844666 
	C622.563599,636.626831 622.577087,634.014282 622.401733,631.434998 
	C621.361877,616.135864 621.943604,600.812012 621.627441,585.502625 
	C621.469177,577.840759 623.762695,575.937683 631.195435,577.190796 
	C646.451416,579.763000 661.753357,582.074402 676.975098,584.831238 
	C681.375854,585.628357 682.622253,584.163818 682.757568,580.129517 
	C683.047607,571.483032 682.579102,562.826965 683.563171,554.182312 
	C684.575989,545.285034 686.309570,543.931580 695.427917,545.187805 
	C704.573792,546.447876 713.772034,547.327820 722.947388,548.374329 
	C723.180847,547.998657 723.414246,547.622986 723.647705,547.247314 
	C707.181641,528.235535 690.715515,509.223785 673.924133,489.836426 
	C668.874268,494.093567 664.405701,497.784058 660.019897,501.570374 
	C631.669495,526.045410 603.353027,550.559753 574.984863,575.014221 
	C569.628906,579.631226 569.500427,579.571838 574.132263,584.995056 
	C583.863342,596.388855 593.646179,607.738586 603.854065,619.657776 
M635.355530,654.844238 
	C636.728638,655.062683 637.462769,654.020386 638.315002,653.285461 
	C657.194214,637.004700 676.069397,620.719238 694.909790,604.393677 
	C695.949097,603.493042 697.535950,602.738037 697.058167,600.775635 
	C696.632446,600.544556 696.229797,600.179565 695.777710,600.101746 
	C676.134460,596.719971 656.486755,593.364502 636.839905,590.003479 
	C632.559814,589.271301 633.273560,592.385864 633.309204,594.748474 
	C633.595520,613.695618 633.935913,632.641907 634.292969,651.587891 
	C634.311157,652.554260 634.633240,653.514954 635.355530,654.844238 
M718.870728,559.743835 
	C712.428040,559.006775 705.978577,558.322815 699.545593,557.508789 
	C696.579041,557.133362 695.388855,558.250916 695.051758,561.244263 
	C694.210571,568.714539 694.428894,576.200562 694.243286,583.682617 
	C694.177551,586.333130 695.274292,587.696716 697.840515,588.136597 
	C700.134399,588.529846 702.464172,588.887024 704.666626,589.603210 
	C708.938354,590.992188 712.167725,589.773743 715.430359,586.773621 
	C721.918457,580.807678 728.781799,575.251404 735.427246,569.453735 
	C736.843384,568.218262 739.186401,567.205017 738.282837,564.737000 
	C737.475342,562.531311 735.448425,561.545288 733.160278,561.291138 
	C728.696533,560.795044 724.226929,560.352356 718.870728,559.743835 
z"/>
<path fill="#dfe0e2" opacity="1.000000" stroke="none" 
	d="
M582.384216,247.365082 
	C603.450439,229.161072 624.235413,211.174393 645.035828,193.205704 
	C652.440430,186.809174 653.897705,187.017715 660.316162,194.443832 
	C682.758545,220.409470 705.241638,246.340012 727.745239,272.252625 
	C733.164429,278.492706 733.169128,281.081665 727.059570,286.363770 
	C691.524048,317.086609 655.975281,347.794250 620.384827,378.453491 
	C613.247803,384.601654 611.883179,384.524536 605.744751,377.444519 
	C582.607483,350.758148 559.546753,324.005402 536.488953,297.250275 
	C532.767334,292.931854 532.976135,290.378204 537.254822,286.642914 
	C552.188904,273.605347 567.155029,260.604370 582.384216,247.365082 
M600.628723,328.713440 
	C599.733521,318.247925 599.718933,307.755188 599.762268,297.266113 
	C599.786743,291.339081 602.578796,289.001343 608.303284,289.965820 
	C616.669373,291.375336 625.001648,292.990631 633.377502,294.336456 
	C642.193909,295.753113 651.044678,296.956024 659.430115,298.186279 
	C660.909607,296.751282 660.749878,295.529999 660.791870,294.389465 
	C661.122498,285.407318 661.489685,276.425842 661.723999,267.441010 
	C661.943726,259.018311 664.242432,257.189240 672.428955,258.239014 
	C681.932190,259.457672 691.491699,260.237427 701.223083,261.227692 
	C701.035645,258.372437 699.302368,257.149353 698.054993,255.700195 
	C684.258911,239.671387 670.405945,223.691452 656.597473,207.673203 
	C652.242798,202.621552 652.050049,202.570343 646.834534,207.093369 
	C615.135315,234.583817 583.472839,262.116974 551.681091,289.499969 
	C548.679321,292.085480 548.465759,293.667389 551.110107,296.651703 
	C561.048584,307.867706 570.701904,319.335785 580.514526,330.663971 
	C586.782166,337.899689 593.141968,345.055481 599.460510,352.247131 
	C599.851440,352.121460 600.242371,351.995789 600.633301,351.870117 
	C600.633301,344.470886 600.633301,337.071655 600.628723,328.713440 
M666.211853,311.326508 
	C649.784668,308.626373 633.340881,306.021088 616.940979,303.164337 
	C612.422852,302.377319 610.956848,303.704620 611.342468,308.253632 
	C612.638306,323.539551 611.773743,338.887817 612.426819,354.192780 
	C612.613220,358.560455 611.857727,363.127472 614.391113,368.375458 
	C635.335083,350.174316 655.868347,332.330078 677.303894,313.701721 
	C672.869385,312.718750 669.962708,312.074463 666.211853,311.326508 
M688.858704,303.126801 
	C698.052551,296.811371 705.780945,288.741943 714.401978,281.738831 
	C715.586853,280.776276 717.611267,279.846161 716.704895,277.818695 
	C715.888367,275.992310 714.438843,274.583405 712.188171,274.323181 
	C700.970093,273.025970 689.751221,271.732513 678.544312,270.343750 
	C674.746765,269.873108 673.124817,271.051880 673.170349,275.169708 
	C673.249268,282.307281 673.475525,289.476532 672.504822,296.588593 
	C672.141541,299.250183 673.224915,300.660583 675.864014,301.079224 
	C679.961121,301.729126 684.043457,302.472504 688.858704,303.126801 
z"/>
<path fill="#dfe0e2" opacity="1.000000" stroke="none" 
	d="
M334.214478,319.520203 
	C330.613708,320.707794 328.434113,318.997864 326.493439,316.757172 
	C303.261108,289.932831 279.997620,263.135345 256.835419,236.250580 
	C251.203735,229.713791 251.354309,228.141205 258.021057,222.363449 
	C293.773621,191.378342 329.570526,160.444305 365.401917,129.550354 
	C371.319855,124.447876 373.143433,124.618484 378.167389,130.395981 
	C401.014740,156.670349 423.834412,182.968872 446.613770,209.302200 
	C452.601288,216.223938 452.528076,218.010056 445.615631,224.005508 
	C417.427124,248.454559 389.206268,272.866821 360.897644,297.176544 
	C352.189575,304.654480 344.012299,312.771423 334.214478,319.520203 
M354.112640,154.620331 
	C325.230164,179.672867 296.347656,204.725403 267.013397,230.169800 
	C284.587006,250.520493 301.621552,270.246948 318.656128,289.973419 
	C319.721375,287.632050 319.749237,285.980072 319.717072,284.329285 
	C319.399048,268.014984 319.012085,251.701752 318.773346,235.386337 
	C318.670166,228.333817 321.086121,226.405518 327.888916,227.508636 
	C343.650299,230.064453 359.438416,232.463165 375.170471,235.186630 
	C378.945435,235.840149 379.828247,234.618256 379.891602,231.169250 
	C380.056641,222.184067 380.502106,213.204300 380.799438,204.221191 
	C381.058685,196.388321 383.351898,194.466644 390.965729,195.370926 
	C400.628204,196.518539 410.312561,197.481964 420.044006,198.530899 
	C420.328461,196.020630 418.724518,195.032059 417.713440,193.855545 
	C403.063202,176.807892 388.314697,159.844498 373.701691,142.765152 
	C371.747253,140.480835 370.253510,140.770706 368.306244,142.457047 
	C363.774902,146.381165 359.199829,150.254852 354.112640,154.620331 
M331.271179,285.490295 
	C331.696777,292.002747 330.530670,298.667877 333.024689,305.989410 
	C354.247986,287.600342 374.901031,269.705383 396.165222,251.280853 
	C390.321899,248.922714 385.148071,248.758026 380.147095,247.888611 
	C365.545624,245.350159 350.920593,242.947906 336.311249,240.454315 
	C332.608307,239.822250 329.990265,240.198563 330.445435,245.033707 
	C331.681244,258.162048 330.763672,271.343567 331.271179,285.490295 
M398.913300,207.970383 
	C392.540253,207.003052 392.354858,207.147781 392.224365,213.468231 
	C392.145233,217.299377 391.817963,221.153061 392.113556,224.956894 
	C392.442963,229.195526 389.374481,234.306091 392.626953,237.403549 
	C395.590576,240.225952 400.888245,239.153778 405.062927,240.220917 
	C407.226196,240.773880 408.873291,240.342651 410.544800,238.878952 
	C417.937592,232.405289 425.451019,226.068817 432.807983,219.555222 
	C434.165466,218.353394 436.753510,217.352585 435.713684,214.905075 
	C434.754425,212.647354 432.545776,211.652725 430.043701,211.387650 
	C419.949585,210.318375 409.861145,209.195221 398.913300,207.970383 
z"/>
<path fill="#dfe0e2" opacity="1.000000" stroke="none" 
	d="
M873.633240,40.075291 
	C874.745789,28.885639 882.562073,21.641380 892.439209,22.205654 
	C902.646057,22.788755 910.321045,30.855108 910.148438,40.817574 
	C909.975769,50.774071 901.880493,58.882446 891.953125,59.042007 
	C881.949707,59.202793 874.321655,51.489227 873.633240,40.075291 
M897.407837,43.920479 
	C899.552979,40.039619 898.839233,36.778950 894.838623,34.829193 
	C891.386536,33.146774 888.340210,34.296875 886.277527,37.499001 
	C884.508240,40.245548 884.959167,43.077488 887.306519,45.122604 
	C890.529846,47.930943 893.919373,47.678539 897.407837,43.920479 
z"/>
<path fill="#dfe0e2" opacity="1.000000" stroke="none" 
	d="
M79.077942,150.763794 
	C74.739510,159.172363 67.257431,163.318802 59.462383,161.916840 
	C50.947720,160.385437 45.034943,154.277847 43.910915,145.852982 
	C42.910912,138.357712 47.366402,130.217148 54.541031,127.173256 
	C61.772743,124.105148 68.872429,125.032990 74.602470,130.305954 
	C80.474983,135.710022 82.180862,142.670227 79.077942,150.763794 
M65.401222,137.915253 
	C61.399075,136.239960 58.352180,137.305939 56.237362,141.091232 
	C54.716389,143.813644 55.327808,146.250031 57.461430,148.251419 
	C60.367500,150.977356 63.523869,151.482162 66.700783,148.610245 
	C69.778252,145.828201 69.538788,142.268631 65.401222,137.915253 
z"/>
<path fill="#dfe0e2" opacity="1.000000" stroke="none" 
	d="
M132.581268,1015.054199 
	C122.475121,1011.789001 116.754570,1003.615662 118.029091,994.766846 
	C119.305901,985.902100 126.578415,979.161987 135.256836,978.800354 
	C145.996384,978.352844 154.546646,986.492798 154.633682,997.247314 
	C154.716049,1007.428284 146.547424,1015.365601 135.986053,1015.345520 
	C134.990143,1015.343628 133.994446,1015.215637 132.581268,1015.054199 
M133.591843,1003.010681 
	C136.993973,1004.366394 139.896027,1003.575256 141.876755,1000.568848 
	C143.477264,998.139404 143.313583,995.488647 141.490250,993.116089 
	C139.022308,989.904602 134.766983,989.507996 131.823334,992.161316 
	C128.407028,995.240784 128.790695,998.848572 133.591843,1003.010681 
z"/>
<path fill="#dfe0e2" opacity="1.000000" stroke="none" 
	d="
M930.075195,623.271240 
	C921.312195,622.539795 915.601990,618.386292 913.110596,610.311768 
	C910.894409,603.129150 913.256348,595.322083 918.751709,590.852539 
	C924.705811,586.009888 932.905823,585.378052 939.844666,589.227234 
	C946.613708,592.982178 950.093018,601.014343 948.357788,608.880493 
	C946.374512,617.871521 940.411987,622.681763 930.075195,623.271240 
M929.123535,611.379395 
	C933.182678,612.010132 936.098633,610.632996 936.843628,606.388916 
	C937.449646,602.936890 936.231995,600.018799 932.729187,598.779358 
	C929.201599,597.531128 926.359314,599.074158 924.840027,602.203247 
	C922.893494,606.212158 924.488464,609.248047 929.123535,611.379395 
z"/>
<path fill="#dfe0e2" opacity="1.000000" stroke="none" 
	d="
M107.816727,412.360474 
	C112.779076,421.005127 112.255936,428.919556 106.538673,435.278412 
	C101.213631,441.201050 92.788940,443.006958 85.517075,439.784637 
	C78.359009,436.612793 73.945030,428.993988 74.718422,421.145508 
	C75.437126,413.852020 80.489693,407.537415 87.582756,405.519836 
	C95.644653,403.226624 102.333145,405.572235 107.816727,412.360474 
M99.398399,421.173096 
	C97.672043,417.340271 94.878654,415.332397 90.682152,416.881714 
	C87.353882,418.110535 85.644440,420.825500 86.530655,424.387665 
	C87.382790,427.812836 89.931801,429.933777 93.485222,429.504059 
	C97.666443,428.998444 99.861961,426.293610 99.398399,421.173096 
z"/>
<path fill="#dfe0e2" opacity="1.000000" stroke="none" 
	d="
M947.661926,924.828613 
	C935.167908,920.881592 929.549561,910.628601 933.763611,900.099121 
	C937.123413,891.704224 946.299194,886.775757 954.752319,888.825867 
	C963.893127,891.042725 969.878784,899.190918 969.131409,908.399963 
	C968.399597,917.418457 960.912598,924.576599 951.545288,925.151733 
	C950.393982,925.222351 949.225220,925.010498 947.661926,924.828613 
M946.041992,911.332581 
	C950.643921,914.111267 954.358459,913.799744 956.409058,910.355713 
	C958.282959,907.208313 957.865784,904.271667 955.095825,901.848389 
	C952.481750,899.561462 949.467285,899.532898 946.860840,901.553223 
	C943.654724,904.038330 943.181763,907.306274 946.041992,911.332581 
z"/>
<path fill="#dfe0e2" opacity="1.000000" stroke="none" 
	d="
M96.344467,708.401978 
	C98.484047,697.788513 104.986992,691.877502 114.354477,691.708008 
	C122.858116,691.554077 130.035355,697.089417 132.298401,705.546997 
	C134.873825,715.172058 129.085220,725.194580 119.495972,727.713440 
	C109.739952,730.276062 99.698395,724.737854 97.068665,715.199219 
	C96.502991,713.147400 96.517815,710.935547 96.344467,708.401978 
M120.857193,708.846436 
	C118.874596,704.076294 115.891495,702.305298 112.344826,703.933594 
	C109.114639,705.416626 107.553352,708.003906 108.275482,711.548584 
	C108.972305,714.969177 111.560913,716.612854 114.776947,716.479736 
	C118.858330,716.310791 120.978424,713.798645 120.857193,708.846436 
z"/>
<path fill="#dfe0e2" opacity="1.000000" stroke="none" 
	d="
M897.071533,330.471863 
	C894.430481,320.186829 897.462463,312.274139 905.450378,307.861938 
	C912.520813,303.956512 922.044556,305.477081 927.444946,311.412384 
	C932.995239,317.512543 933.782227,324.516479 930.602356,331.834229 
	C927.689636,338.537170 922.195923,342.046234 914.877563,342.231964 
	C906.492676,342.444763 900.621887,338.487946 897.071533,330.471863 
M907.705322,322.201569 
	C907.466980,328.467133 911.864197,332.329498 916.693848,330.027100 
	C919.266357,328.800690 920.950867,326.838226 920.688599,323.768127 
	C920.419922,320.621948 918.690735,318.453979 915.698792,317.646118 
	C912.115540,316.678589 909.648254,318.418365 907.705322,322.201569 
z"/>
<path fill="#dfe0e2" opacity="1.000000" stroke="none" 
	d="
M405.181580,788.433960 
	C395.871552,792.763733 387.386292,791.345154 381.747406,784.781006 
	C376.398682,778.554443 375.700806,769.964111 380.099945,763.038818 
	C384.257080,756.494446 390.343292,753.848633 397.956024,754.687988 
	C405.525696,755.522461 410.448273,759.950684 412.915985,766.865784 
	C415.426392,773.900818 413.590179,780.273376 408.584381,785.721191 
	C407.697479,786.686462 406.530762,787.394592 405.181580,788.433960 
M390.745667,768.332886 
	C388.459808,771.400696 388.349579,774.538208 390.990509,777.338196 
	C392.935547,779.400513 395.423096,780.173645 398.218201,778.724304 
	C401.631805,776.954346 403.029907,772.684998 401.235413,769.369873 
	C399.469971,766.108521 395.769409,765.529724 390.745667,768.332886 
z"/>
<path fill="#dfe0e2" opacity="1.000000" stroke="none" 
	d="
M689.604004,831.502258 
	C687.395325,841.283386 681.352173,846.992615 673.124817,847.394287 
	C663.873779,847.846008 656.750122,843.339600 654.018311,835.307800 
	C650.706665,825.571167 656.278748,814.655701 666.004028,811.828125 
	C676.188354,808.867126 686.663452,814.859314 689.148315,825.186218 
	C689.606873,827.092041 689.517090,829.129761 689.604004,831.502258 
M677.740173,827.927734 
	C676.481567,824.175476 674.108032,821.770752 669.952393,822.833496 
	C666.355591,823.753357 664.124634,826.419983 664.698120,830.253052 
	C665.217407,833.723938 667.557373,835.953674 671.300171,835.814087 
	C675.744019,835.648254 677.904175,833.128662 677.740173,827.927734 
z"/>
<path fill="#dfe0e2" opacity="1.000000" stroke="none" 
	d="
M356.077026,481.697968 
	C359.888855,470.042328 369.589844,464.769775 379.842194,468.435028 
	C390.116730,472.108154 394.873779,482.696594 390.760193,492.736877 
	C387.506378,500.678711 379.132538,505.374298 371.036682,503.796722 
	C361.920746,502.020386 355.830200,495.016968 355.687317,486.082642 
	C355.666138,484.758789 355.866608,483.431396 356.077026,481.697968 
M380.623108,486.303955 
	C379.823242,481.167358 377.176086,478.652649 372.959106,479.226715 
	C369.014740,479.763672 367.192047,482.243408 367.271973,486.129303 
	C367.335236,489.205322 369.043060,491.150665 371.961853,491.768219 
	C376.070312,492.637451 379.205444,491.411713 380.623108,486.303955 
z"/>
<path fill="#dfe0e2" opacity="1.000000" stroke="none" 
	d="
M636.963257,544.608643 
	C640.379089,534.769287 647.568359,529.326111 655.769714,530.017578 
	C664.961548,530.792542 671.855225,537.102478 673.118591,545.897339 
	C674.531372,555.731873 667.161865,565.539856 657.764587,566.331787 
	C645.797241,567.340332 636.915161,560.042786 636.715393,549.011108 
	C636.691345,547.683899 636.820129,546.353882 636.963257,544.608643 
M657.343384,542.229431 
	C652.218018,541.207153 648.533875,543.331787 648.265198,547.600037 
	C648.058289,550.885803 649.327515,553.486267 652.639587,554.507507 
	C656.038940,555.555725 658.859924,554.541504 660.628357,551.358582 
	C662.728088,547.579224 661.302490,544.753357 657.343384,542.229431 
z"/>
<path fill="#dfe0e2" opacity="1.000000" stroke="none" 
	d="
M615.045593,263.554871 
	C614.746338,254.124008 618.793579,247.409348 626.245605,244.431152 
	C633.594421,241.494186 641.437561,243.255569 646.746765,249.035309 
	C651.913513,254.659836 652.844543,263.248871 649.065125,270.422333 
	C645.792908,276.633148 638.650635,280.339844 631.561829,279.506226 
	C622.789001,278.474579 617.436462,273.417358 615.045593,263.554871 
M629.771606,266.954468 
	C635.197998,268.514740 638.784912,267.082092 639.613403,262.891205 
	C640.307312,259.381439 639.048218,256.733307 635.712524,255.199860 
	C632.466614,253.707657 629.800476,254.791428 627.831970,257.391571 
	C625.297729,260.738953 625.985596,263.871948 629.771606,266.954468 
z"/>
<path fill="#dfe0e2" opacity="1.000000" stroke="none" 
	d="
M343.742859,182.460938 
	C355.482391,177.814575 366.016907,182.240051 369.531830,192.973114 
	C372.938141,203.374619 367.034363,213.839386 356.283691,216.456055 
	C347.919128,218.491959 339.281036,214.248688 335.657471,206.323868 
	C331.631226,197.518341 334.508392,188.728317 343.742859,182.460938 
M347.376526,203.064072 
	C352.323273,206.473633 357.594696,205.200806 358.664062,200.254791 
	C359.309387,197.270264 358.609344,194.627625 355.727905,193.048218 
	C353.027496,191.567993 350.315460,191.561264 347.933563,193.700058 
	C345.047302,196.291718 344.682220,199.277435 347.376526,203.064072 
z"/>
</svg>