<svg width="600" height="600" viewBox="0 0 600 600" fill="none" xmlns="http://www.w3.org/2000/svg">
<path d="M0 130.97C0 58.6375 58.6374 0 130.97 0L469.03 0C541.363 0 600 58.6374 600 130.97L600 469.027C600 541.36 541.363 599.997 469.03 599.997L130.97 599.997C58.6374 599.997 0 541.36 0 469.027L0 130.97Z" fill="#F1F1F1"/>
<path fill-rule="evenodd" clip-rule="evenodd" d="M492.005 372L300.005 114L108.005 372H217.239L300.005 260.783L382.771 372H492.005Z" fill="#161616"/>
<path fill-rule="evenodd" clip-rule="evenodd" d="M216.005 372L300.005 486L384.005 372L336.215 372L300.005 421.142L263.795 372L216.005 372Z" fill="#161616"/>
<circle cx="488" cy="112" r="112" fill="#D04949"/>
</svg>
